<svg width="245" height="30" viewBox="0 0 245 30" fill="none" xmlns="http://www.w3.org/2000/svg">
    <path d="M0 0H64.92V29.47H0V0Z" fill="white"/>
    <path d="M6.97391 7.24199V20.722H12.2539V22.322H5.00391V7.24199H6.97391ZM21.1839 22.472C19.7839 22.472 18.5072 22.1453 17.3539 21.492C16.2006 20.832 15.2906 19.9153 14.6239 18.742C13.9506 17.562 13.6139 16.2387 13.6139 14.772C13.6139 13.2987 13.9506 11.9753 14.6239 10.802C15.2906 9.62199 16.2006 8.70533 17.3539 8.05199C18.5072 7.39199 19.7839 7.06199 21.1839 7.06199C22.5972 7.06199 23.8839 7.39199 25.0439 8.05199C26.1972 8.70533 27.1039 9.61866 27.7639 10.792C28.4306 11.9587 28.7639 13.2853 28.7639 14.772C28.7639 16.2587 28.4306 17.5853 27.7639 18.752C27.1039 19.9187 26.1972 20.832 25.0439 21.492C23.8839 22.1453 22.5972 22.472 21.1839 22.472ZM21.1839 20.762C22.2372 20.762 23.1872 20.5187 24.0339 20.032C24.8806 19.5387 25.5439 18.8387 26.0239 17.932C26.5106 17.0187 26.7539 15.9653 26.7539 14.772C26.7539 13.5587 26.5106 12.502 26.0239 11.602C25.5439 10.6953 24.8839 9.99866 24.0439 9.51199C23.2106 9.01866 22.2572 8.77199 21.1839 8.77199C20.1172 8.77199 19.1672 9.01866 18.3339 9.51199C17.4939 9.99866 16.8339 10.6953 16.3539 11.602C15.8672 12.502 15.6239 13.5587 15.6239 14.772C15.6239 15.9653 15.8672 17.0187 16.3539 17.932C16.8339 18.8387 17.4972 19.5387 18.3439 20.032C19.1839 20.5187 20.1306 20.762 21.1839 20.762ZM30.6239 14.772C30.6239 13.2987 30.9539 11.9753 31.6139 10.802C32.2806 9.62199 33.1872 8.70199 34.3339 8.04199C35.4806 7.37533 36.7539 7.04199 38.1539 7.04199C39.8006 7.04199 41.2372 7.43866 42.4639 8.23199C43.6906 9.02533 44.5839 10.152 45.1439 11.612H42.7839C42.3639 10.6987 41.7606 9.99866 40.9739 9.51199C40.1872 9.01866 39.2472 8.77199 38.1539 8.77199C37.1006 8.77199 36.1572 9.01866 35.3239 9.51199C34.4839 9.99866 33.8272 10.6953 33.3539 11.602C32.8739 12.502 32.6339 13.5587 32.6339 14.772C32.6339 15.9653 32.8739 17.0153 33.3539 17.922C33.8272 18.822 34.4839 19.5153 35.3239 20.002C36.1572 20.4953 37.1006 20.742 38.1539 20.742C39.2472 20.742 40.1872 20.502 40.9739 20.022C41.7606 19.5353 42.3639 18.8387 42.7839 17.932H45.1439C44.5839 19.372 43.6906 20.4853 42.4639 21.272C41.2372 22.0587 39.8006 22.452 38.1539 22.452C36.7539 22.452 35.4806 22.1253 34.3339 21.472C33.1872 20.812 32.2806 19.8987 31.6139 18.732C30.9539 17.5587 30.6239 16.2387 30.6239 14.772ZM59.9239 7.21199V22.322H57.9539L50.0339 10.312V22.322H48.0639V7.21199H50.0339L57.9539 19.202V7.21199H59.9239Z"
          fill="transparent"/>
    <path d="M69.9199 0H239.83V2H69.9199V0ZM69.9199 27.47H239.83V29.47H69.9199V27.47Z" fill="white"/>
    <path d="M81.107 22.322L80.117 19.442H74.097L73.097 22.322H69.917L75.347 7.19196H78.877L84.307 22.322H81.107ZM74.917 17.022H79.287L77.107 10.702L74.917 17.022ZM86.297 7.21195H89.327V16.562C89.327 17.5886 89.597 18.372 90.137 18.912C90.6703 19.452 91.4203 19.722 92.387 19.722C93.367 19.722 94.1237 19.452 94.657 18.912C95.1903 18.372 95.457 17.5886 95.457 16.562V7.21195H98.507V16.542C98.507 17.8286 98.2303 18.9153 97.677 19.802C97.117 20.6886 96.3737 21.3553 95.447 21.802C94.5137 22.2486 93.477 22.472 92.337 22.472C91.2103 22.472 90.1903 22.2486 89.277 21.802C88.3637 21.3553 87.6403 20.6886 87.107 19.802C86.567 18.9153 86.297 17.8286 86.297 16.542V7.21195ZM100.627 7.21195H111.707V9.66196H107.687V22.322H104.657V9.66196H100.627V7.21195ZM120.927 22.472C119.514 22.472 118.217 22.1419 117.037 21.4819C115.85 20.8153 114.91 19.8953 114.217 18.722C113.524 17.542 113.177 16.2086 113.177 14.722C113.177 13.2553 113.524 11.932 114.217 10.752C114.91 9.57862 115.85 8.65863 117.037 7.99196C118.217 7.33196 119.514 7.00195 120.927 7.00195C122.354 7.00195 123.657 7.33196 124.837 7.99196C126.01 8.65863 126.94 9.57862 127.627 10.752C128.314 11.932 128.657 13.2553 128.657 14.722C128.657 16.2086 128.314 17.542 127.627 18.722C126.94 19.8953 126.007 20.8153 124.827 21.4819C123.64 22.1419 122.34 22.472 120.927 22.472ZM120.927 19.772C121.834 19.772 122.634 19.5653 123.327 19.152C124.02 18.7386 124.564 18.152 124.957 17.392C125.344 16.6253 125.537 15.7353 125.537 14.722C125.537 13.7153 125.344 12.832 124.957 12.072C124.564 11.3186 124.02 10.7386 123.327 10.332C122.634 9.92529 121.834 9.72195 120.927 9.72195C120.02 9.72195 119.217 9.92529 118.517 10.332C117.817 10.7386 117.27 11.3186 116.877 12.072C116.49 12.832 116.297 13.7153 116.297 14.722C116.297 15.7353 116.49 16.6253 116.877 17.392C117.27 18.152 117.817 18.7386 118.517 19.152C119.217 19.5653 120.02 19.772 120.927 19.772ZM130.167 14.752C130.167 13.2653 130.504 11.932 131.177 10.752C131.844 9.57862 132.76 8.66195 133.927 8.00195C135.087 7.34862 136.387 7.02196 137.827 7.02196C139.514 7.02196 140.994 7.45529 142.267 8.32195C143.534 9.18862 144.42 10.3853 144.927 11.912H141.447C141.1 11.192 140.614 10.652 139.987 10.292C139.354 9.93195 138.627 9.75195 137.807 9.75195C136.927 9.75195 136.144 9.95529 135.457 10.362C134.77 10.7753 134.237 11.3586 133.857 12.112C133.477 12.8586 133.287 13.7386 133.287 14.752C133.287 15.7453 133.477 16.622 133.857 17.382C134.237 18.1353 134.77 18.7186 135.457 19.132C136.144 19.5386 136.927 19.742 137.807 19.742C138.627 19.742 139.354 19.5586 139.987 19.192C140.614 18.8253 141.1 18.282 141.447 17.562H144.927C144.42 19.102 143.537 20.302 142.277 21.162C141.017 22.022 139.534 22.452 137.827 22.452C136.387 22.452 135.087 22.1253 133.927 21.472C132.76 20.812 131.844 19.8986 131.177 18.7319C130.504 17.5586 130.167 16.232 130.167 14.752ZM154.537 22.472C153.124 22.472 151.824 22.1419 150.637 21.4819C149.457 20.8153 148.52 19.8953 147.827 18.722C147.134 17.542 146.787 16.2086 146.787 14.722C146.787 13.2553 147.134 11.932 147.827 10.752C148.52 9.57862 149.457 8.65863 150.637 7.99196C151.824 7.33196 153.124 7.00195 154.537 7.00195C155.964 7.00195 157.264 7.33196 158.437 7.99196C159.617 8.65863 160.55 9.57862 161.237 10.752C161.917 11.932 162.257 13.2553 162.257 14.722C162.257 16.2086 161.917 17.542 161.237 18.722C160.55 19.8953 159.614 20.8153 158.427 21.4819C157.247 22.1419 155.95 22.472 154.537 22.472ZM154.537 19.772C155.444 19.772 156.244 19.5653 156.937 19.152C157.63 18.7386 158.17 18.152 158.557 17.392C158.95 16.6253 159.147 15.7353 159.147 14.722C159.147 13.7153 158.95 12.832 158.557 12.072C158.17 11.3186 157.63 10.7386 156.937 10.332C156.244 9.92529 155.444 9.72195 154.537 9.72195C153.63 9.72195 152.827 9.92529 152.127 10.332C151.427 10.7386 150.88 11.3186 150.487 12.072C150.1 12.832 149.907 13.7153 149.907 14.722C149.907 15.7353 150.1 16.6253 150.487 17.392C150.88 18.152 151.427 18.7386 152.127 19.152C152.827 19.5653 153.63 19.772 154.537 19.772ZM177.557 7.21195H180.977V22.322H177.947V12.502L173.907 22.322H171.607L167.537 12.502V22.322H164.517V7.21195H167.957L172.757 18.452L177.557 7.21195ZM194.987 11.892C194.987 12.6986 194.794 13.4553 194.407 14.162C194.027 14.8686 193.43 15.4386 192.617 15.872C191.797 16.3053 190.767 16.522 189.527 16.522H186.997V22.322H183.967V7.21195H189.527C190.7 7.21195 191.697 7.41529 192.517 7.82195C193.337 8.22862 193.954 8.78529 194.367 9.49196C194.78 10.1986 194.987 10.9986 194.987 11.892ZM189.397 14.072C190.237 14.072 190.857 13.882 191.257 13.502C191.664 13.122 191.867 12.5853 191.867 11.892C191.867 10.4186 191.044 9.68195 189.397 9.68195H186.997V14.072H189.397ZM200.157 7.21195V19.922H205.137V22.322H197.127V7.21195H200.157ZM215.827 9.66196H210.087V13.452H215.177V15.852H210.087V19.852H215.827V22.322H207.057V7.19196H215.827V9.66196ZM217.767 7.21195H228.847V9.66196H224.827V22.322H221.797V9.66196H217.767V7.21195ZM239.827 9.66196H234.087V13.452H239.177V15.852H234.087V19.852H239.827V22.322H231.057V7.19196H239.827V9.66196Z"
          fill="white"/>
</svg>
